<?xml version="1.0" encoding="UTF-8"?>
<svg version="1.1" xmlns="http://www.w3.org/2000/svg" width="1024" height="250">
<path d="M0 0 C0.495 0.99 0.495 0.99 1 2 C1.99 1.34 2.98 0.68 4 0 C6.15396786 -0.24888897 6.15396786 -0.24888897 8.69969177 -0.24723816 C9.66566284 -0.25143265 10.63163391 -0.25562714 11.62687683 -0.25994873 C12.68514175 -0.25432922 13.74340668 -0.24870972 14.83374023 -0.24291992 C15.94941376 -0.24481827 17.06508728 -0.24671661 18.21456909 -0.24867249 C21.91264818 -0.2523854 25.61053203 -0.24166781 29.30859375 -0.23046875 C31.87305173 -0.22927703 34.43751014 -0.22882377 37.00196838 -0.2290802 C42.38130619 -0.22751439 47.76057319 -0.21946027 53.13989258 -0.20581055 C59.35705754 -0.190093 65.57416071 -0.18481218 71.79134411 -0.1855461 C77.77303122 -0.18615684 83.75469315 -0.18093849 89.73637581 -0.17275429 C92.28133078 -0.16956792 94.82628757 -0.16760029 97.37124443 -0.16686058 C100.92648296 -0.16469622 104.48164343 -0.15594949 108.03686523 -0.14526367 C109.09310593 -0.14571686 110.14934662 -0.14617004 111.2375946 -0.14663696 C112.69078094 -0.14023949 112.69078094 -0.14023949 114.17332458 -0.13371277 C115.0137905 -0.13203692 115.85425642 -0.13036108 116.720191 -0.12863445 C119 0 119 0 121.10244846 0.5357008 C124.11519998 1.27287083 126.95118497 0.44982517 130 0 C135.9588011 -0.4671534 139.69755993 -0.01275004 145 3 C145.77730469 3.14050781 146.55460938 3.28101563 147.35546875 3.42578125 C153.21960273 4.69908656 158.48563613 8.44957984 162.625 12.6875 C164 15 164 15 164 18 C164.99 18 165.98 18 167 18 C167 18.99 167 19.98 167 21 C167.66 21.33 168.32 21.66 169 22 C169.67375452 24.088639 170 25.80363095 170 28 C170.66 28.33 171.32 28.66 172 29 C172.07014186 47.7674608 172.12301353 66.53489493 172.15543652 85.30245972 C172.17089253 94.01695137 172.1919578 102.73136147 172.22631836 111.44580078 C172.25625953 119.04303894 172.27558421 126.64021802 172.28226548 134.23751354 C172.28616976 138.25866701 172.29531885 142.27965152 172.31719017 146.30075073 C172.33762996 150.08953952 172.34381876 153.87809056 172.33932304 157.66692924 C172.34014491 159.05360648 172.34606593 160.44029209 172.35761642 161.82692146 C172.41660254 169.27679851 172.17456654 175.21094559 169 182 C168.71125 182.886875 168.4225 183.77375 168.125 184.6875 C166.61857026 187.78405003 164.48784576 189.62523814 162 192 C160.41809752 193.86174763 158.86754228 195.74438699 157.33203125 197.64453125 C156.89246094 198.09183594 156.45289063 198.53914062 156 199 C155.34 199 154.68 199 154 199 C153.5875 199.45375 153.175 199.9075 152.75 200.375 C150.41308371 202.54499369 148.02676583 203.09841018 145 204 C144.34 204.33 143.68 204.66 143 205 C129.11155525 207.90102019 114.82005692 207.2911829 100.71484375 207.265625 C98.08264632 207.2669744 95.45044914 207.26891722 92.81825256 207.27142334 C87.33071849 207.27503804 81.84323869 207.27032524 76.35571289 207.26074219 C70.02470053 207.24981339 63.69381658 207.25342515 57.36280721 207.264395 C51.2401357 207.27457559 45.1175209 207.27348603 38.99484444 207.26763153 C36.40130152 207.26629887 33.8077553 207.26792929 31.21421623 207.27259064 C27.59836983 207.2776685 23.98277128 207.26992986 20.36694336 207.25878906 C18.76554253 207.26486176 18.76554253 207.26486176 17.13179016 207.27105713 C11.96522058 207.24156126 7.87158317 206.90150877 3 205 C1.88625 205.04125 0.7725 205.0825 -0.375 205.125 C-6.45145252 204.91546715 -10.81306771 202.26811935 -15 198 C-16.1446875 197.4121875 -16.1446875 197.4121875 -17.3125 196.8125 C-22.142988 193.55472902 -25.71921025 188.3506679 -28 183 C-28 182.01 -28 181.02 -28 180 C-28.66 180 -29.32 180 -30 180 C-32.06305334 172.35736584 -32.28418606 165.20526819 -32.25878906 157.3137207 C-32.2615041 155.95268569 -32.26506789 154.59165214 -32.26940918 153.23062134 C-32.27847196 149.55934377 -32.27501505 145.88817948 -32.26865101 142.21690011 C-32.26356229 138.36401343 -32.26829012 134.51113599 -32.27142334 130.6582489 C-32.27505333 124.19329091 -32.27028795 117.72837875 -32.26074219 111.26342773 C-32.24984566 103.79760873 -32.25339577 96.33189888 -32.264395 88.86608249 C-32.27347898 82.44207175 -32.27474813 76.01809381 -32.26951766 69.59407872 C-32.26640585 65.7632097 -32.26596718 61.93239195 -32.27259064 58.10152626 C-32.27838015 54.50223439 -32.27433795 50.90308304 -32.26280212 47.3038063 C-32.25890978 45.35842836 -32.26482651 43.41303849 -32.27105713 41.46766663 C-32.26541748 40.30285767 -32.25977783 39.13804871 -32.25396729 37.9379425 C-32.25321323 36.93012883 -32.25245918 35.92231516 -32.25168228 34.88396168 C-31.97194465 31.67852107 -31.12482314 29.00471722 -30 26 C-29.34 26 -28.68 26 -28 26 C-27.731875 24.865625 -27.46375 23.73125 -27.1875 22.5625 C-26.795625 21.386875 -26.40375 20.21125 -26 19 C-25.01 18.67 -24.02 18.34 -23 18 C-23 16.68 -23 15.36 -23 14 C-17.77272727 9 -17.77272727 9 -15 9 C-15 8.34 -15 7.68 -15 7 C-13.35 6.67 -11.7 6.34 -10 6 C-10 5.34 -10 4.68 -10 4 C-6.7 3.34 -3.4 2.68 0 2 C0 1.34 0 0.68 0 0 Z " fill="#2E2F58" transform="translate(233,29)"/>
<path d="M0 0 C7.68490153 5.0940919 7.68490153 5.0940919 9 8.875 C9 9.57625 9 10.2775 9 11 C9.99 11 10.98 11 12 11 C12 11.99 12 12.98 12 14 C12.99 14.495 12.99 14.495 14 15 C14.67375452 17.088639 15 18.80363095 15 21 C15.66 21.33 16.32 21.66 17 22 C17.07014186 40.7674608 17.12301353 59.53489493 17.15543652 78.30245972 C17.17089253 87.01695137 17.1919578 95.73136147 17.22631836 104.44580078 C17.25625953 112.04303894 17.27558421 119.64021802 17.28226548 127.23751354 C17.28616976 131.25866701 17.29531885 135.27965152 17.31719017 139.30075073 C17.33762996 143.08953952 17.34381876 146.87809056 17.33932304 150.66692924 C17.34014491 152.05360648 17.34606593 153.44029209 17.35761642 154.82692146 C17.41660254 162.27679851 17.17456654 168.21094559 14 175 C13.71125 175.886875 13.4225 176.77375 13.125 177.6875 C11.61857026 180.78405003 9.48784576 182.62523814 7 185 C5.41809752 186.86174763 3.86754228 188.74438699 2.33203125 190.64453125 C1.89246094 191.09183594 1.45289063 191.53914062 1 192 C0.34 192 -0.32 192 -1 192 C-1.4125 192.45375 -1.825 192.9075 -2.25 193.375 C-4.58691629 195.54499369 -6.97323417 196.09841018 -10 197 C-10.66 197.33 -11.32 197.66 -12 198 C-25.95405942 200.93708057 -40.3237563 200.2544188 -54.49609375 200.1953125 C-57.14266798 200.19157597 -59.78923132 200.18863344 -62.43580627 200.18673706 C-68.65084343 200.18056657 -74.86580867 200.16421702 -81.08081442 200.14403808 C-88.16686974 200.12153952 -95.25292882 200.11065087 -102.33901107 200.10064721 C-116.89271083 200.07984585 -131.44635441 200.0447579 -146 200 C-145.53268916 198.55875998 -145.06198005 197.11862154 -144.58984375 195.67895508 C-144.3280835 194.87686111 -144.06632324 194.07476715 -143.79663086 193.24836731 C-140.25186549 183.24381565 -132.25573808 175.46304488 -125 168 C-124.50806152 167.48759766 -124.01612305 166.97519531 -123.50927734 166.44726562 C-117.61643365 160.32193609 -111.57532669 154.64204659 -104.9140625 149.34375 C-101.54481766 146.6339016 -98.27155342 143.82625742 -95 141 C-90.89809302 137.46345364 -86.77196109 133.97135036 -82.5625 130.5625 C-77.53965477 126.48235886 -72.64579955 122.26707095 -67.76904297 118.01464844 C-64.62388208 115.27230425 -61.47055033 112.54253465 -58.28125 109.8515625 C-35.28194651 90.43302599 -17.56909305 67.64132874 -8.0078125 38.890625 C-7 36 -7 36 -5.98803711 34.09301758 C-4.9425874 31.87837949 -4.53586191 30.03847204 -4.18359375 27.62109375 C-4.05968262 26.78682861 -3.93577148 25.95256348 -3.80810547 25.09301758 C-3.68580566 24.21669678 -3.56350586 23.34037598 -3.4375 22.4375 C-3.30746582 21.54377686 -3.17743164 20.65005371 -3.04345703 19.72924805 C-2.24116106 14.0983568 -1.58180644 8.47860817 -1.2109375 2.80078125 C-1 1 -1 1 0 0 Z " fill="#2A2B52" transform="translate(388,36)"/>
<path d="M0 0 C0.825 -0.01289062 1.65 -0.02578125 2.5 -0.0390625 C6.21613283 0.94803528 7.61899402 2.6251905 10 5.625 C10.72774766 8.55969365 10.72174313 11.41282237 10.70703125 14.42578125 C10.72971321 15.6803437 10.72971321 15.6803437 10.75285339 16.96025085 C10.79568438 19.61960913 10.80456356 22.27783138 10.8125 24.9375 C10.83564801 26.74547281 10.86101399 28.55341868 10.88867188 30.36132812 C10.95147838 34.7826523 10.98384958 39.20326919 11 43.625 C11.46325684 43.21290283 11.92651367 42.80080566 12.40380859 42.3762207 C13.02078613 41.83570068 13.63776367 41.29518066 14.2734375 40.73828125 C14.88106934 40.20243408 15.48870117 39.66658691 16.11474609 39.11450195 C22.7392213 33.88063466 30.84187557 33.07930606 39 33.625 C47.32222835 34.95655654 54.26930881 38.4693362 60 44.625 C68.67018936 56.64819165 70.23204351 70.05010229 68.375 84.4375 C66.60340934 94.15027676 62.15507239 103.71504875 54 109.625 C44.49065769 114.87931456 33.80748588 116.57827996 23.1875 113.5625 C18.27726625 111.68933675 14.68191012 108.28684522 11 104.625 C10.608125 105.718125 10.21625 106.81125 9.8125 107.9375 C8.69528814 110.47568177 7.94191111 111.6796719 5.875 113.625 C1.84814919 115.02564376 -1.97135028 115.12403245 -6 113.625 C-9.20990665 110.68037508 -10.26612336 108.38905752 -10.5146637 104.14709473 C-10.54142017 102.32546243 -10.54613138 100.50342526 -10.53344727 98.68164062 C-10.54206284 97.68432419 -10.55067841 96.68700775 -10.55955505 95.6594696 C-10.5822374 92.36646492 -10.5754721 89.07430961 -10.56640625 85.78125 C-10.57164055 83.49108629 -10.57791632 81.20092474 -10.58518982 78.9107666 C-10.59559806 74.11244559 -10.59102584 69.31442106 -10.57641602 64.51611328 C-10.55922206 58.36546065 -10.58272974 52.21574163 -10.61790562 46.06519318 C-10.63985876 41.33654585 -10.6384432 36.60812266 -10.6301403 31.87944031 C-10.62931976 29.61161779 -10.63620272 27.34377899 -10.65091133 25.07600403 C-10.66831932 21.90620394 -10.65384494 18.73809136 -10.63110352 15.56835938 C-10.64279572 14.63106491 -10.65448792 13.69377045 -10.66653442 12.72807312 C-10.60014106 8.18270375 -10.47830728 6.2431475 -7.61680603 2.54504395 C-4.77924325 0.4630229 -3.47628446 -0.05431694 0 0 Z M14.6875 55.8125 C9.56834656 64.3444224 8.69903932 73.44803359 10.46875 83.2109375 C12.26971713 89.49288237 15.70954362 94.52276398 21.25 98.0625 C26.93168326 99.22466248 32.61658569 99.736699 37.875 96.9375 C44.23490833 92.23116783 46.5006075 87.25234446 48 79.625 C48.8939568 71.14449092 47.98815249 62.20627858 42.75 55.1875 C38.48896128 51.21698665 34.82335668 49.82759519 29.0625 49.1875 C23.31885611 49.43285954 18.80548057 51.91711297 14.6875 55.8125 Z " fill="#5C42AD" transform="translate(637,63.375)"/>
<path d="M0 0 C1 3 1 3 1 5 C1.99 5.495 1.99 5.495 3 6 C3.11659197 14.51110808 3.20506442 23.02187452 3.25906086 31.53358746 C3.2849955 35.48728114 3.32009134 39.44042276 3.37719727 43.39379883 C3.43210238 47.21938702 3.46154134 51.04444915 3.47438622 54.87040138 C3.48352263 56.31947916 3.50135948 57.76853286 3.52865028 59.21738243 C3.76020802 72.03739237 0.60152778 82.64918016 -6.125 93.5625 C-6.50333984 94.18253906 -6.88167969 94.80257812 -7.27148438 95.44140625 C-17.95194256 112.33626393 -34.15765867 125.00149643 -53.48046875 130.2734375 C-59.97028264 131.6131771 -66.42966666 132.06863849 -73.04199219 132.29125977 C-83.24951147 132.63901296 -93.00472584 133.94138783 -103 136 C-100.81635526 131.9768 -99.12463429 130.18704094 -94.9140625 128.1875 C-92.80796806 126.98569233 -92.80796806 126.98569233 -90.75 124.70703125 C-87.53990418 121.54709318 -84.11176503 119.17601422 -80.375 116.6875 C-78.93815604 115.71319165 -77.50195968 114.73792758 -76.06640625 113.76171875 C-75.36918457 113.28911621 -74.67196289 112.81651367 -73.95361328 112.32958984 C-52.31063999 97.59981822 -32.83244122 80.09104036 -20 57 C-19.49855469 56.12859375 -18.99710937 55.2571875 -18.48046875 54.359375 C-10.02793364 39.38019886 -5.7729536 23.90251957 -3.03857422 7.05175781 C-2.21229432 2.21229432 -2.21229432 2.21229432 0 0 Z " fill="#9172DF" transform="translate(402,52)"/>
<path d="M0 0 C6.8069178 5.92534245 8.05102103 14.02421809 8.83984375 22.6015625 C8.99146717 25.84270808 9.02685061 29.07983249 9.04296875 32.32421875 C9.04866882 33.22853134 9.0543689 34.13284393 9.0602417 35.06455994 C9.06963265 36.96465912 9.07620198 38.86477415 9.08007812 40.76489258 C9.08982772 43.6593045 9.12092456 46.55301847 9.15234375 49.44726562 C9.15887115 51.30207916 9.16412265 53.15689772 9.16796875 55.01171875 C9.18031555 55.86919205 9.19266235 56.72666534 9.2053833 57.61012268 C9.18541858 63.02870078 8.39844013 66.79772327 5.83984375 71.6015625 C2.74691718 74.05457323 -0.31328534 73.99410035 -4.16015625 73.6015625 C-8.79013628 71.66343133 -10.2399589 69.14939832 -12.16015625 64.6015625 C-12.66804687 65.08367187 -13.1759375 65.56578125 -13.69921875 66.0625 C-14.38757813 66.69414062 -15.0759375 67.32578125 -15.78515625 67.9765625 C-16.45804688 68.60304688 -17.1309375 69.22953125 -17.82421875 69.875 C-24.17033895 74.56561058 -31.61069951 74.29025428 -39.16015625 73.6015625 C-46.88454118 71.92627382 -52.918272 68.53893016 -58.16015625 62.6015625 C-62.02911467 56.23650187 -63.23471477 49.8659134 -61.734375 42.515625 C-60.00407314 36.97441292 -56.99889895 33.7261757 -52.16015625 30.6015625 C-39.59074871 24.42711669 -24.80755742 25.33967207 -11.16015625 25.6015625 C-11.46991093 23.83024689 -11.7830605 22.05952472 -12.09765625 20.2890625 C-12.27167969 19.30292969 -12.44570313 18.31679687 -12.625 17.30078125 C-13.11762472 14.51967037 -13.11762472 14.51967037 -14.16015625 11.6015625 C-21.84730166 7.65410945 -31.07464051 9.03681097 -38.97265625 11.5390625 C-41.03589457 12.22434357 -43.09848573 12.91157906 -45.16015625 13.6015625 C-47.78879468 14.39528991 -49.36287547 14.65983918 -52.16015625 14.6015625 C-55.58800411 12.19477571 -56.94610081 10.74319149 -57.72265625 6.6015625 C-57.01190997 2.81091565 -55.85010806 1.36093242 -53.16015625 -1.3984375 C-50.66208889 -2.52641319 -48.44502283 -3.38132626 -45.84765625 -4.1484375 C-45.20892578 -4.35597656 -44.57019531 -4.56351562 -43.91210938 -4.77734375 C-29.41208399 -9.33155638 -12.61383159 -9.26078775 0 0 Z M-39.34765625 41.4140625 C-41.50765746 44.02096051 -42.16015625 45.20668112 -42.16015625 48.6015625 C-40.96964511 52.43765394 -40.0204462 54.88465421 -36.91015625 57.4765625 C-32.03819993 59.46963554 -28.06608536 60.14406443 -23.03515625 58.4765625 C-17.85666917 56.25291814 -15.01218614 53.18810092 -12.34765625 48.2265625 C-11.11206562 44.45475951 -10.91890615 41.54198083 -11.16015625 37.6015625 C-25.74660965 36.98658904 -25.74660965 36.98658904 -39.34765625 41.4140625 Z " fill="#5C42AD" transform="translate(779.16015625,104.3984375)"/>
<path d="M0 0 C6.11741091 5.83316758 8.34782377 13.97022817 8.73228455 22.24720764 C8.79012046 25.02973955 8.81603448 27.81063906 8.828125 30.59375 C8.83382507 31.61424438 8.83952515 32.63473877 8.84539795 33.68615723 C8.85481729 35.83779879 8.8613697 37.98945457 8.86523438 40.14111328 C8.874967 43.42636169 8.90603067 46.71099121 8.9375 49.99609375 C8.94402825 52.09114214 8.94927942 54.18619497 8.953125 56.28125 C8.9654718 57.25952759 8.9778186 58.23780518 8.99053955 59.24572754 C8.97324081 64.55539671 8.66770471 68.37436218 5.625 72.9375 C1.99244459 75.32460784 -1.3554356 75.14248757 -5.5078125 74.484375 C-8.30697817 73.66453568 -9.6719991 72.25358123 -11.375 69.9375 C-12.309848 67.132956 -12.50882466 65.38869366 -12.53271484 62.48535156 C-12.54297699 61.58721741 -12.55323914 60.68908325 -12.56381226 59.76373291 C-12.57111359 58.7949823 -12.57841492 57.82623169 -12.5859375 56.828125 C-12.61401231 54.77342962 -12.64267681 52.71874223 -12.671875 50.6640625 C-12.71308122 47.42741166 -12.7499722 44.19090897 -12.77636719 40.95410156 C-12.80406151 37.82846306 -12.84993953 34.70350087 -12.8984375 31.578125 C-12.90169037 30.61747131 -12.90494324 29.65681763 -12.90829468 28.66705322 C-13.01116584 23.01170319 -13.66277488 18.936143 -16.375 13.9375 C-20.61337486 10.70741221 -26.31840713 11.37167728 -31.375 11.9375 C-36.29278742 13.44165842 -39.11114868 16.37581976 -41.55657959 20.86987305 C-43.06681274 24.68527003 -42.93783878 28.50695925 -42.9140625 32.5625 C-42.92585541 33.46822754 -42.93764832 34.37395508 -42.94979858 35.30712891 C-42.98490547 38.18409609 -42.99421094 41.06033663 -43 43.9375 C-43.01640109 46.81444426 -43.03856483 49.69106876 -43.07162476 52.56787109 C-43.09108524 54.35196721 -43.10060824 56.13620911 -43.09854126 57.92041016 C-43.14144808 62.96242689 -43.58388234 67.19995171 -45.375 71.9375 C-49.64018121 75.26642192 -53.20185541 75.13858384 -58.32421875 74.5546875 C-60.78525993 73.8140313 -61.78904545 72.94030666 -63.375 70.9375 C-64.4902571 67.5917287 -64.51552834 65.05200922 -64.53613281 61.52587891 C-64.54109772 60.87998306 -64.54606262 60.23408722 -64.55117798 59.56861877 C-64.56577225 57.43375581 -64.57259685 55.29896714 -64.578125 53.1640625 C-64.58387854 51.67817178 -64.58963625 50.19228107 -64.59539795 48.70639038 C-64.60590003 45.59104059 -64.61174793 42.47571656 -64.61523438 39.36035156 C-64.62071867 35.37337351 -64.64474832 31.38673705 -64.67320633 27.3998661 C-64.69185283 24.3303224 -64.69703936 21.26086066 -64.69857025 18.19126511 C-64.70159258 16.72168484 -64.709607 15.25210588 -64.72275543 13.78258133 C-64.73985944 11.72409497 -64.73792575 9.66643924 -64.73144531 7.60791016 C-64.73691376 5.85276596 -64.73691376 5.85276596 -64.74249268 4.06216431 C-64.33480823 0.59576313 -63.45098389 -1.28333477 -61.375 -4.0625 C-57.65531421 -5.92234289 -53.42523808 -5.6356469 -49.375 -5.0625 C-45.71818919 -2.37586349 -44.27797083 -0.41910151 -43.375 3.9375 C-42.95089844 3.53917969 -42.52679687 3.14085938 -42.08984375 2.73046875 C-30.52665911 -7.71451781 -12.782525 -10.03664926 0 0 Z " fill="#5C42AD" transform="translate(599.375,103.0625)"/>
<path d="M0 0 C1.41805831 0.28482368 2.83440379 0.57818144 4.25 0.875 C5.43335938 1.11863281 5.43335938 1.11863281 6.640625 1.3671875 C8.96831144 1.99150075 10.89031952 2.84838542 13 4 C13.39156594 11.94733827 12.83217972 19.51790682 11.6875 27.375 C11.51093872 28.64005371 11.51093872 28.64005371 11.33081055 29.93066406 C10.54022903 35.0433947 9.18738311 39.27260778 7 44 C6.16269791 46.41529448 5.32959089 48.83204608 4.5 51.25 C-0.31280733 64.55841725 -7.82054588 77.24217821 -17 88 C-17.67289062 88.85335937 -18.34578125 89.70671875 -19.0390625 90.5859375 C-26.84361112 100.43125149 -35.49831891 108.99369536 -45.31640625 116.8203125 C-47.96082198 118.96817855 -50.4845497 121.20311173 -53 123.5 C-57.19729034 127.32170863 -61.53710231 130.91474189 -65.94921875 134.484375 C-70.1841589 137.97643833 -74.31005952 141.58874924 -78.4453125 145.19775391 C-82.13836528 148.41225173 -85.87330567 151.55383054 -89.6875 154.625 C-95.69553119 159.50263124 -101.37528786 164.69219915 -107 170 C-108.42892578 171.3303125 -108.42892578 171.3303125 -109.88671875 172.6875 C-119.464582 181.87797408 -126.41784946 191.93535207 -132 204 C-136.29 203.67 -140.58 203.34 -145 203 C-144.34 202.67 -143.68 202.34 -143 202 C-142.66384745 200.00047191 -142.3310325 198.00038211 -142 196 C-135.78433309 180.79233496 -123.57661782 167.19630144 -111.1875 156.625 C-108.14416912 154.00305339 -105.15647726 151.33090333 -102.1875 148.625 C-97.920411 144.77294701 -93.5189675 141.13062151 -89.05078125 137.515625 C-84.81345883 134.02159729 -80.68480025 130.40770363 -76.5480957 126.7956543 C-72.92332917 123.63934179 -69.25555381 120.56358988 -65.5 117.5625 C-60.21477427 113.28849833 -55.28037082 108.6815895 -50.34472656 104.01416016 C-47.21604774 101.056443 -44.0752569 98.17554521 -40.75 95.4375 C-19.48130101 76.97700586 -3.28042838 46.34930463 -0.75170898 18.23999023 C-0.58723633 15.45170632 -0.46909564 12.66650406 -0.375 9.875 C-0.31699219 8.44027344 -0.31699219 8.44027344 -0.2578125 6.9765625 C-0.16479872 4.65121801 -0.07896229 2.32585665 0 0 Z " fill="#B3BBF0" transform="translate(374,31)"/>
<path d="M0 0 C1.216875 0.185625 2.43375 0.37125 3.6875 0.5625 C7.04344192 1.07442334 9.69633066 0.78107769 13 0 C13.57554079 11.12712194 12.10972429 20.35975872 9 31 C8.72285156 32.10085937 8.44570313 33.20171875 8.16015625 34.3359375 C2.45934339 55.61546937 -12.83147776 74.54444604 -28 90 C-28.66902344 90.69609375 -29.33804688 91.3921875 -30.02734375 92.109375 C-34.13804642 96.3226122 -38.52938764 100.17530403 -43 104 C-44.03131791 104.88403537 -45.06256231 105.76815649 -46.09375 106.65234375 C-47.84954559 108.15727538 -49.60560206 109.66189868 -51.36230469 111.16577148 C-55.85665304 115.01457882 -60.33893908 118.87705344 -64.8125 122.75 C-65.4413208 123.29309814 -66.0701416 123.83619629 -66.71801758 124.39575195 C-70.97805142 128.08410512 -75.15928326 131.84738834 -79.265625 135.70703125 C-81 137 -81 137 -84 137 C-84 137.66 -84 138.32 -84 139 C-85.6796875 140.7265625 -85.6796875 140.7265625 -87.875 142.625 C-88.59429687 143.25664062 -89.31359375 143.88828125 -90.0546875 144.5390625 C-92 146 -92 146 -94 146 C-94.66 147.65 -95.32 149.3 -96 151 C-96.66 151 -97.32 151 -98 151 C-98.35384766 152.04027344 -98.35384766 152.04027344 -98.71484375 153.1015625 C-100.24156063 156.54479631 -102.31802244 159.38037649 -104.5625 162.375 C-108.8219305 168.16213373 -112.59600311 174.12117603 -116.13110352 180.37646484 C-117.03622606 181.94824455 -118.01166973 183.4791642 -119 185 C-119.66 185 -120.32 185 -121 185 C-119.54609434 174.89107948 -117.94797322 166.44228457 -112 158 C-111.690625 157.175 -111.38125 156.35 -111.0625 155.5 C-109.89136811 152.74439556 -108.23854333 150.88406844 -106.27368164 148.65332031 C-104.92910861 146.90797844 -104.12828291 145.2486438 -103.24609375 143.234375 C-101.02972875 138.695089 -98.06244365 135.52895728 -94.4375 132.0625 C-93.81762207 131.45623779 -93.19774414 130.84997559 -92.55908203 130.2253418 C-88.14599894 125.96147969 -83.53649729 122.02196104 -78.72265625 118.21484375 C-74.5733474 114.83943755 -70.69085852 111.18935311 -66.76953125 107.5546875 C-64.54081607 105.49886278 -62.29232081 103.48383043 -60 101.5 C-56.06998236 98.09398471 -52.24672004 94.57453889 -48.42626953 91.046875 C-45.62556111 88.4667855 -42.78746707 85.95260385 -39.875 83.5 C-16.55653959 63.07225782 -2.20857559 33.25218039 -0.1484375 2.4921875 C-0.07496094 1.25855469 -0.07496094 1.25855469 0 0 Z " fill="#9F9BE0" transform="translate(348,29)"/>
<path d="M0 0 C0.825 -0.01289062 1.65 -0.02578125 2.5 -0.0390625 C6.18659092 0.94018821 7.62092371 2.67238223 10 5.625 C10.48538869 8.48399993 10.66658957 10.74239505 10.61523438 13.59301758 C10.62078339 14.38069016 10.6263324 15.16836273 10.63204956 15.97990417 C10.64383461 18.57707069 10.61957739 21.17248736 10.59375 23.76953125 C10.59203799 25.58167949 10.5921055 27.39383021 10.59387207 29.20597839 C10.59221929 33.00320145 10.57353431 36.79983385 10.54199219 40.59692383 C10.50239974 45.44902864 10.49793745 50.30035705 10.50545502 55.15259266 C10.50853509 58.89571666 10.49636603 62.63866824 10.47932434 66.38175011 C10.47232233 68.16979578 10.46916639 69.957861 10.47001648 71.74592018 C10.46820521 74.2539004 10.44670876 76.76097636 10.41992188 79.26879883 C10.42285248 79.99894196 10.42578308 80.72908508 10.42880249 81.48135376 C10.31429473 88.48039945 8.16404859 94.92096264 4 100.625 C-4.11350306 107.0091596 -12.40401834 109.15261735 -22.5703125 108.94140625 C-25 108.625 -25 108.625 -27.625 106.9375 C-29.18641274 104.31148766 -29.92519261 102.69210301 -30 99.625 C-28.9375 96.9375 -28.9375 96.9375 -27 94.625 C-24.25 93.5 -24.25 93.5 -21 92.625 C-15.81161578 90.93893224 -15.81161578 90.93893224 -12.31503296 87.00074768 C-10.82537956 83.17674162 -10.59339249 79.89975803 -10.64697266 75.86303711 C-10.64481247 75.10941391 -10.64265228 74.35579071 -10.64042664 73.57933044 C-10.63735199 71.95227444 -10.64090895 70.32519498 -10.65044022 68.69816399 C-10.66422981 66.12107661 -10.65771212 63.54475477 -10.64559937 60.96766663 C-10.61470236 53.64432637 -10.61954035 46.32116766 -10.63964844 38.99780273 C-10.65056738 34.51029955 -10.63737729 30.02337448 -10.60975266 25.53595161 C-10.60431572 23.82915163 -10.60836685 22.12229368 -10.62215042 20.4155407 C-10.64120784 18.02890802 -10.62979778 15.64416859 -10.61181641 13.25756836 C-10.62515518 12.5556134 -10.63849396 11.85365845 -10.65223694 11.13043213 C-10.58779779 7.27945996 -10.07768782 5.72074146 -7.61801147 2.68946838 C-4.77156514 0.4448646 -3.56891349 -0.05576427 0 0 Z " fill="#5C42AD" transform="translate(465,97.375)"/>
<path d="M0 0 C0.33 0 0.66 0 1 0 C1.08803772 3.49983803 1.14073608 6.99938638 1.1875 10.5 C1.21263672 11.48226562 1.23777344 12.46453125 1.26367188 13.4765625 C1.32649669 19.7590441 0.56710346 24.26138644 -2 30 C-2.28875 30.886875 -2.5775 31.77375 -2.875 32.6875 C-4.38142974 35.78405003 -6.51215424 37.62523814 -9 40 C-10.58190248 41.86174763 -12.13245772 43.74438699 -13.66796875 45.64453125 C-14.10753906 46.09183594 -14.54710937 46.53914063 -15 47 C-15.66 47 -16.32 47 -17 47 C-17.4125 47.45375 -17.825 47.9075 -18.25 48.375 C-20.58691629 50.54499369 -22.97323417 51.09841018 -26 52 C-26.99 52.495 -26.99 52.495 -28 53 C-47.45647555 57.17795792 -69.41779298 57.43288281 -88 50 C-88 49.34 -88 48.68 -88 48 C-89.44632812 47.90912109 -89.44632812 47.90912109 -90.921875 47.81640625 C-92.18515625 47.73261719 -93.4484375 47.64882812 -94.75 47.5625 C-96.00296875 47.48128906 -97.2559375 47.40007812 -98.546875 47.31640625 C-102 47 -102 47 -103.9453125 46.5 C-106.10888438 45.97350342 -108.10580259 45.79470987 -110.328125 45.68359375 C-111.52695312 45.62075195 -111.52695312 45.62075195 -112.75 45.55664062 C-113.575 45.51732422 -114.4 45.47800781 -115.25 45.4375 C-116.51070313 45.37272461 -116.51070313 45.37272461 -117.796875 45.30664062 C-119.86440671 45.20091457 -121.93218281 45.09998705 -124 45 C-110.58332956 36.05555304 -91.41196111 37.71935197 -75.98583984 37.42919922 C-47.46928874 36.768657 -26.2919439 27.62548545 -6.19140625 7.359375 C-3.92869321 4.98389694 -3.92869321 4.98389694 -1.77734375 2.203125 C-1.19082031 1.47609375 -0.60429687 0.7490625 0 0 Z " fill="#512FB7" transform="translate(404,181)"/>
<path d="M0 0 C3.09541806 2.2110129 4.63022867 3.60629342 5.61102295 7.30300903 C6.03212301 10.22272642 6.14164543 13.01420149 6.16113281 15.96435547 C6.17074036 17.14262909 6.1803479 18.32090271 6.19024658 19.53488159 C6.19449646 20.79954254 6.19874634 22.06420349 6.203125 23.3671875 C6.20882507 24.67527374 6.21452515 25.98335999 6.22039795 27.33108521 C6.23087732 30.0965412 6.2367402 32.86196838 6.24023438 35.62744141 C6.24571729 39.15681512 6.26975347 42.68580273 6.29820633 46.21505547 C6.32139744 49.5990916 6.32328606 52.98307607 6.328125 56.3671875 C6.3404718 57.62779999 6.3528186 58.88841248 6.36553955 60.18722534 C6.33138479 73.66861521 6.33138479 73.66861521 1 79 C-4.60653573 80.42911695 -7.9750559 79.85732116 -13 77 C-15.3508038 73.61308637 -15.25329027 70.49982877 -15.25878906 66.45898438 C-15.2622937 65.81133621 -15.26579834 65.16368805 -15.26940918 64.49641418 C-15.27818977 62.36208278 -15.27239053 60.22808461 -15.265625 58.09375 C-15.26697271 56.60689226 -15.26891413 55.12003495 -15.27142334 53.63317871 C-15.27436962 50.51956988 -15.27009297 47.40607593 -15.26074219 44.29248047 C-15.24934787 40.30436813 -15.25591001 36.31652501 -15.26788712 32.32842255 C-15.27511914 29.2589109 -15.27281163 26.18946292 -15.26763153 23.11994934 C-15.26629875 21.64956124 -15.26792974 20.17916733 -15.27259064 18.70878601 C-15.27767802 16.6527071 -15.26991501 14.59706227 -15.25878906 12.54101562 C-15.25719788 11.37171509 -15.25560669 10.20241455 -15.25396729 8.99768066 C-15.00417249 6.04924968 -14.65440917 4.423984 -13 2 C-8.76189465 -0.82540356 -4.97584134 -0.77772321 0 0 Z " fill="#5C42AD" transform="translate(510,98)"/>
<path d="M0 0 C0.33 0 0.66 0 1 0 C2.31618975 9.12192619 -0.26991371 15.00326178 -5.68164062 22.31640625 C-9.77183737 27.53973899 -14.30745734 32.31919709 -19 37 C-19.67804688 37.68964844 -20.35609375 38.37929687 -21.0546875 39.08984375 C-35.21240394 52.48802605 -55.68090397 58.89859932 -74.83203125 59.28125 C-76.30403669 59.31900141 -77.77604189 59.35676209 -79.24804688 59.39453125 C-81.54351138 59.44836786 -83.83900678 59.50059641 -86.13452148 59.55224609 C-88.36713845 59.60388646 -90.59956238 59.66111145 -92.83203125 59.71875 C-93.52158401 59.73232544 -94.21113678 59.74590088 -94.92158508 59.7598877 C-98.58436769 59.81508843 -98.58436769 59.81508843 -102 61 C-103.74587791 61.2053974 -105.49720319 61.36590626 -107.25 61.5 C-111.21190038 61.82798912 -115.08953206 62.26018174 -119 63 C-119 63.66 -119 64.32 -119 65 C-119.54785156 65.18433594 -120.09570312 65.36867188 -120.66015625 65.55859375 C-127.25342356 67.97076472 -133.00607035 71.25322807 -138.90844727 75.00170898 C-143.69708021 78 -143.69708021 78 -147 78 C-131.90161761 62.27154601 -131.90161761 62.27154601 -125 59 C-124.01 59 -123.02 59 -122 59 C-122 58.34 -122 57.68 -122 57 C-119.81477184 56.03619618 -117.62704614 55.07890561 -115.4375 54.125 C-114.82841797 53.85558594 -114.21933594 53.58617187 -113.59179688 53.30859375 C-107.76742942 50.78161951 -102.0707294 48.88744943 -95.6875 48.5 C-92.09820856 48.22690174 -88.69947071 47.78557239 -85.1875 47 C-81.28753186 46.15643322 -77.54718911 45.81914959 -73.5625 45.625 C-53.34943654 44.28624118 -32.38136255 38.18177387 -18.06640625 22.94140625 C-16.69530333 21.30726201 -15.34515186 19.65557153 -14 18 C-13.34 18 -12.68 18 -12 18 C-11.77441406 17.48953125 -11.54882812 16.9790625 -11.31640625 16.453125 C-9.47045302 13.01318841 -7.21293119 9.91693676 -4.9375 6.75 C-4.47794922 6.1003125 -4.01839844 5.450625 -3.54492188 4.78125 C-2.39061476 3.16759306 -1.19851004 1.58110319 0 0 Z " fill="#5F3FBF" transform="translate(404,148)"/>
<path d="M0 0 C2.74864666 4.34463505 2.8425515 8.05180579 1.9375 13.0625 C-0.16754591 16.61930172 -1.14656808 17.75718936 -5.0625 19.0625 C-9.66948012 19.46853893 -13.75785498 19.60610209 -18.0625 17.8125 C-21.40016655 14.89204177 -21.97226809 13.055051 -22.375 8.625 C-22.03218874 4.71695166 -21.61221309 3.02345713 -19.0625 0.0625 C-12.61583314 -3.80550012 -6.45053575 -4.08095119 0 0 Z " fill="#5C42AD" transform="translate(515.0625,64.9375)"/>
<path d="M0 0 C2.8058393 2.8058393 3.26831415 4.50324695 3.4375 8.375 C3.41281361 12.20756165 3.20168768 12.88668398 0.6875 16.0625 C-4.07282585 19.68941493 -8.08285109 19.57881549 -13.9375 19.0625 C-16.89483901 17.83027541 -18.30860863 16.87107462 -20.25 14.375 C-21.28233355 10.90260533 -21.5032289 7.61952044 -20.9375 4.0625 C-19.05062597 0.72418441 -17.60668789 -0.60290606 -14.1875 -2.3125 C-8.75101675 -3.35797755 -4.67127194 -3.08105171 0 0 Z " fill="#5C42AD" transform="translate(473.9375,64.9375)"/>
<path d="M0 0 C31.68 0 63.36 0 96 0 C96 0.33 96 0.66 96 1 C84.55039742 2.34842848 73.22304909 3.19435874 61.6875 3.1875 C60.64537354 3.18814453 59.60324707 3.18878906 58.52954102 3.18945312 C52.93276426 3.14960875 47.5361558 2.82678551 42 2 C41.67 2.66 41.34 3.32 41 4 C41 3.34 41 2.68 41 2 C27.8 2 14.6 2 1 2 C0.67 1.34 0.34 0.68 0 0 Z " fill="#707FA2" transform="translate(251,29)"/>
<path d="M0 0 C1.0725 0.144375 2.145 0.28875 3.25 0.4375 C15.95954505 1.99153578 28.50037796 2.16519464 41.28125 2.01367188 C41.96018311 2.00702011 42.63911621 2.00036835 43.33862305 1.99351501 C45.20107427 1.97383373 47.06343743 1.94627388 48.92578125 1.91821289 C51.50548353 1.98684379 53.55592548 2.23019196 56 3 C56 3.66 56 4.32 56 5 C37.06772672 7.01937853 17.94404903 8.17761961 0 1 C0 0.67 0 0.34 0 0 Z " fill="#3029A4" transform="translate(316,230)"/>
<path d="M0 0 C0.33 0 0.66 0 1 0 C1 43.23 1 86.46 1 131 C0.67 131 0.34 131 0 131 C0 87.77 0 44.54 0 0 Z " fill="#000000" transform="translate(200,67)"/>
<path d="M0 0 C0 3.75268218 -1.10148876 4.96680766 -3.25 8 C-3.85328125 8.86625 -4.4565625 9.7325 -5.078125 10.625 C-6.9055577 12.88329082 -8.68491338 14.28780052 -11 16 C-12.75072715 19.08333587 -12.75072715 19.08333587 -14 22 C-14.66 22 -15.32 22 -16 22 C-16.433125 22.9075 -16.86625 23.815 -17.3125 24.75 C-18.71158614 27.44453628 -19.99504798 29.7335325 -22 32 C-22.66 32 -23.32 32 -24 32 C-20.69284913 21.09276204 -11.89271689 7.53114536 -2.1953125 1.15625 C-1.47085938 0.7746875 -0.74640625 0.393125 0 0 Z " fill="#8EDDF2" transform="translate(257,195)"/>
<path d="M0 0 C0.66 0.33 1.32 0.66 2 1 C2 2.32 2 3.64 2 5 C3.86869751 4.74875366 3.86869751 4.74875366 5.77514648 4.49243164 C11.40261741 3.8706939 16.94552709 3.97206791 22.59765625 4.12109375 C23.67252792 4.14470474 24.7473996 4.16831573 25.85484314 4.19264221 C29.25755084 4.26866316 32.65999465 4.35294925 36.0625 4.4375 C38.38214893 4.49078245 40.7018104 4.54352232 43.02148438 4.59570312 C48.68114963 4.72419399 54.34062193 4.85945484 60 5 C60 5.33 60 5.66 60 6 C29.31 6.495 29.31 6.495 -2 7 C-1.34 4.69 -0.68 2.38 0 0 Z " fill="#19343F" transform="translate(244,229)"/>
<path d="M0 0 C0.66 0 1.32 0 2 0 C2 20.13 2 40.26 2 61 C1.01 61.495 1.01 61.495 0 62 C-0.33 60.68 -0.66 59.36 -1 58 C-0.34 58 0.32 58 1 58 C0.96970703 57.37996094 0.93941406 56.75992188 0.90820312 56.12109375 C0.02253042 37.39933524 -0.11776678 18.73760039 0 0 Z " fill="#AFADE5" transform="translate(403,64)"/>
<path d="M0 0 C0.66 0.33 1.32 0.66 2 1 C1.690625 1.5775 1.38125 2.155 1.0625 2.75 C-0.09021245 4.88413585 -0.09021245 4.88413585 -0.234375 6.94921875 C-1.39082217 10.04684511 -3.41019066 10.62095563 -6.3125 12.0625 C-9.80064542 13.81821538 -12.94687741 15.55605151 -16 18 C-16.66 17.67 -17.32 17.34 -18 17 C-15.94062935 14.91349269 -13.87766489 12.83075945 -11.8125 10.75 C-11.23435547 10.16347656 -10.65621094 9.57695312 -10.06054688 8.97265625 C-6.85617604 5.75018163 -3.62534642 2.75826734 0 0 Z " fill="#3F2E92" transform="translate(275,209)"/>
<path d="M0 0 C0.33 0 0.66 0 1 0 C1 5.61 1 11.22 1 17 C-1 13 -1 13 -2 6 C-5.96 9.96 -9.92 13.92 -14 18 C-14.66 17.67 -15.32 17.34 -16 17 C-15.18015625 16.19175781 -14.3603125 15.38351563 -13.515625 14.55078125 C-12.42694863 13.47149002 -11.3384145 12.39205531 -10.25 11.3125 C-9.71117187 10.78205078 -9.17234375 10.25160156 -8.6171875 9.70507812 C-5.50974461 6.61658305 -2.72822967 3.43578456 0 0 Z " fill="#6153B5" transform="translate(404,181)"/>
<path d="M0 0 C0.33 0 0.66 0 1 0 C0.17697467 6.44703177 -0.94106546 12.82319637 -3 19 C-1.68 18.01 -0.36 17.02 1 16 C1 17.32 1 18.64 1 20 C0.34 20 -0.32 20 -1 20 C-1.66 21.98 -2.32 23.96 -3 26 C-3.33 26 -3.66 26 -4 26 C-4.62596368 16.50621746 -2.97647055 8.98256292 0 0 Z " fill="#383680" transform="translate(230,195)"/>
<path d="M0 0 C3.46941546 0.45822468 6.67395049 0.89131683 10 2 C10 2.66 10 3.32 10 4 C3.4 4 -3.2 4 -10 4 C-10 3.67 -10 3.34 -10 3 C-9.36191406 2.95101562 -8.72382813 2.90203125 -8.06640625 2.8515625 C-7.24011719 2.77679688 -6.41382813 2.70203125 -5.5625 2.625 C-4.73878906 2.55539063 -3.91507812 2.48578125 -3.06640625 2.4140625 C-2.38449219 2.27742187 -1.70257813 2.14078125 -1 2 C-0.67 1.34 -0.34 0.68 0 0 Z " fill="#102433" transform="translate(315,231)"/>
<path d="M0 0 C0.66 0.33 1.32 0.66 2 1 C1.690625 1.5775 1.38125 2.155 1.0625 2.75 C0.07416636 4.84294184 -0.5168613 6.74535275 -1 9 C-2.65 9.33 -4.3 9.66 -6 10 C-6 7 -6 7 -5 4 C-3.37667033 2.61423077 -1.71275535 1.27358732 0 0 Z " fill="#442C9E" transform="translate(275,209)"/>
<path d="M0 0 C0.680625 0.70125 1.36125 1.4025 2.0625 2.125 C4.72895979 4.81438065 7.59762496 7.19808964 10.546875 9.5703125 C12 11 12 11 13 14 C7.08101264 12.98944118 4.76894337 9.72239962 1.3203125 5.19140625 C0 3 0 3 0 0 Z " fill="#0A2426" transform="translate(207,213)"/>
<path d="M0 0 C-1.65 0.66 -3.3 1.32 -5 2 C-4.67 2.66 -4.34 3.32 -4 4 C-7.63 4 -11.26 4 -15 4 C-12.60939149 2.40626099 -10.69171821 1.34702924 -8.0625 0.3125 C-7.39347656 0.04050781 -6.72445313 -0.23148438 -6.03515625 -0.51171875 C-3.67169662 -1.0787676 -2.2807201 -0.76024003 0 0 Z " fill="#3E2A96" transform="translate(295,222)"/>
<path d="M0 0 C0 3.83764027 -1.26535335 5.11486085 -3.5 8.1875 C-4.1496875 9.08855469 -4.799375 9.98960937 -5.46875 10.91796875 C-5.9740625 11.60503906 -6.479375 12.29210937 -7 13 C-7.99 12.67 -8.98 12.34 -10 12 C-9.38125 11.443125 -8.7625 10.88625 -8.125 10.3125 C-5.88008941 8.15004603 -5.88008941 8.15004603 -5 5.4375 C-3.83289935 2.59269216 -2.5604276 1.62160415 0 0 Z " fill="#A1E6FC" transform="translate(257,195)"/>
<path d="M0 0 C2.5 1.25 2.5 1.25 5 3 C5 4.32 5 5.64 5 7 C3.68 7 2.36 7 1 7 C0.01 7.495 0.01 7.495 -1 8 C-1.04241723 5.66705225 -1.04092937 3.33297433 -1 1 C-0.67 0.67 -0.34 0.34 0 0 Z " fill="#5E5A8E" transform="translate(388,36)"/>
<path d="M0 0 C1.22589844 0.01353516 1.22589844 0.01353516 2.4765625 0.02734375 C3.41628906 0.04474609 3.41628906 0.04474609 4.375 0.0625 C4.705 0.7225 5.035 1.3825 5.375 2.0625 C4.67632812 2.19527344 3.97765625 2.32804687 3.2578125 2.46484375 C2.34773438 2.64144531 1.43765625 2.81804688 0.5 3 C-0.40492188 3.17402344 -1.30984375 3.34804688 -2.2421875 3.52734375 C-4.62456317 3.96213701 -4.62456317 3.96213701 -6.625 5.0625 C-6.625 3.7425 -6.625 2.4225 -6.625 1.0625 C-4.21954362 -0.14022819 -2.67503047 -0.03821472 0 0 Z " fill="#4E477F" transform="translate(367.625,28.9375)"/>
<path d="M0 0 C0.66 0.33 1.32 0.66 2 1 C1.06027344 1.92232422 1.06027344 1.92232422 0.1015625 2.86328125 C-0.71570313 3.67152344 -1.53296875 4.47976562 -2.375 5.3125 C-3.18710937 6.11300781 -3.99921875 6.91351563 -4.8359375 7.73828125 C-7.12604842 10.00009937 -7.12604842 10.00009937 -9 13 C-9.99 12.67 -10.98 12.34 -12 12 C-8.04 8.04 -4.08 4.08 0 0 Z " fill="#183046" transform="translate(269,198)"/>
<path d="M0 0 C0.66 0.33 1.32 0.66 2 1 C1.45730469 1.47050781 0.91460937 1.94101563 0.35546875 2.42578125 C-0.71767578 3.35970703 -0.71767578 3.35970703 -1.8125 4.3125 C-2.52019531 4.92738281 -3.22789062 5.54226562 -3.95703125 6.17578125 C-5.70136739 7.73334335 -7.36778041 9.32658875 -9 11 C-9.99 10.67 -10.98 10.34 -12 10 C-10.82630859 9.04287109 -10.82630859 9.04287109 -9.62890625 8.06640625 C-8.61699219 7.24011719 -7.60507812 6.41382813 -6.5625 5.5625 C-5.55316406 4.73878906 -4.54382813 3.91507813 -3.50390625 3.06640625 C-1.70216039 1.58798996 -1.70216039 1.58798996 0 0 Z " fill="#725BC2" transform="translate(348,149)"/>
<path d="M0 0 C0.33 0 0.66 0 1 0 C1 4.29 1 8.58 1 13 C0.34 12.01 -0.32 11.02 -1 10 C-1.66 10 -2.32 10 -3 10 C-2.01 6.7 -1.02 3.4 0 0 Z " fill="#424073" transform="translate(404,125)"/>
<path d="M0 0 C0.33 0 0.66 0 1 0 C1 3.63 1 7.26 1 11 C0.01 11.495 0.01 11.495 -1 12 C-0.67 9.69 -0.34 7.38 0 5 C-0.99 5.33 -1.98 5.66 -3 6 C-1.125 1.125 -1.125 1.125 0 0 Z " fill="#8677CB" transform="translate(404,148)"/>
<path d="M0 0 C0.33 0.66 0.66 1.32 1 2 C-0.43257963 4.72872311 -1.81722366 6.81722366 -4 9 C-4.99 8.67 -5.98 8.34 -7 8 C-4.69 5.36 -2.38 2.72 0 0 Z " fill="#82D4ED" transform="translate(252,198)"/>
<path d="M0 0 C0.99 0.33 1.98 0.66 3 1 C0.03 4.3 -2.94 7.6 -6 11 C-6 7.39426104 -5.18292538 6.58663434 -3 3.8125 C-2.443125 3.09707031 -1.88625 2.38164062 -1.3125 1.64453125 C-0.879375 1.10183594 -0.44625 0.55914062 0 0 Z " fill="#7C65C6" transform="translate(399,155)"/>
<path d="M0 0 C0.99 0.33 1.98 0.66 3 1 C1.12050295 4.57104439 -0.17053157 6.54744301 -4 8 C-3.34 6.02 -2.68 4.04 -2 2 C-1.34 2 -0.68 2 0 2 C0 1.34 0 0.68 0 0 Z " fill="#416ADE" transform="translate(397,214)"/>
<path d="M0 0 C0.99 0 1.98 0 3 0 C2.40312566 3.34249629 1.26396123 5.46436342 -1 8 C-1.66 8 -2.32 8 -3 8 C-1.125 2.25 -1.125 2.25 0 0 Z " fill="#97DBEB" transform="translate(236,219)"/>
<path d="M0 0 C0.99 0.33 1.98 0.66 3 1 C2.67 1.99 2.34 2.98 2 4 C0.68 4 -0.64 4 -2 4 C-2 4.66 -2 5.32 -2 6 C-2.66 6 -3.32 6 -4 6 C-3.6875 4.125 -3.6875 4.125 -3 2 C-2.01 1.34 -1.02 0.68 0 0 Z " fill="#413BCC" transform="translate(399,210)"/>
<path d="M0 0 C-1.49097658 3.7952131 -3.75700849 5.61042731 -7 8 C-4.73913043 0 -4.73913043 0 0 0 Z " fill="#94CAEB" transform="translate(264,202)"/>
<path d="M0 0 C0.66 0.33 1.32 0.66 2 1 C2 2.32 2 3.64 2 5 C2.99 5.33 3.98 5.66 5 6 C2.69 6.33 0.38 6.66 -2 7 C-1.34 4.69 -0.68 2.38 0 0 Z " fill="#193642" transform="translate(244,229)"/>
<path d="M0 0 C0.66 0.33 1.32 0.66 2 1 C1.4375 2.875 1.4375 2.875 0 5 C-3.625 6.25 -3.625 6.25 -7 7 C-4.66666667 4.66666667 -2.33333333 2.33333333 0 0 Z " fill="#5444A4" transform="translate(300,184)"/>
<path d="M0 0 C0.75 1.625 0.75 1.625 1 4 C-0.9375 7.25 -0.9375 7.25 -3 10 C-4 7 -4 7 -3.22265625 5.17578125 C-2.1484375 3.45052083 -1.07421875 1.72526042 0 0 Z " fill="#423E91" transform="translate(236,183)"/>
<path d="M0 0 C1.25541557 3.76624671 0.37061958 5.37188934 -1 9 C-1.33 9 -1.66 9 -2 9 C-2.125 5.625 -2.125 5.625 -2 2 C-1.34 1.34 -0.68 0.68 0 0 Z " fill="#ACA6DE" transform="translate(402,52)"/>
<path d="M0 0 C1.98 0 3.96 0 6 0 C6 0.66 6 1.32 6 2 C4.02 2.66 2.04 3.32 0 4 C-0.33 3.34 -0.66 2.68 -1 2 C-0.67 1.34 -0.34 0.68 0 0 Z " fill="#3323B7" transform="translate(376,230)"/>
<path d="M0 0 C0.66 0 1.32 0 2 0 C0.90931332 3.77545388 0.0916909 6.47043472 -3 9 C-1.125 2.25 -1.125 2.25 0 0 Z " fill="#173A4A" transform="translate(234,219)"/>
<path d="M0 0 C0.66 0.33 1.32 0.66 2 1 C1.195625 1.61875 0.39125 2.2375 -0.4375 2.875 C-3.03874519 4.74164041 -3.03874519 4.74164041 -4 7 C-4.99 6.67 -5.98 6.34 -7 6 C-4.74259377 3.66475218 -2.7194239 1.81294927 0 0 Z " fill="#5A3EBB" transform="translate(383,202)"/>
<path d="" fill="#000000" transform="translate(0,0)"/>
<path d="" fill="#0000FF" transform="translate(0,0)"/>
<path d="" fill="#0000FF" transform="translate(0,0)"/>
<path d="" fill="#000000" transform="translate(0,0)"/>
<path d="" fill="#000080" transform="translate(0,0)"/>
<path d="" fill="#0000FF" transform="translate(0,0)"/>
<path d="" fill="#FFFFFF" transform="translate(0,0)"/>
<path d="" fill="#FFFFFF" transform="translate(0,0)"/>
<path d="" fill="#000000" transform="translate(0,0)"/>
<path d="" fill="#000000" transform="translate(0,0)"/>
</svg>
